<svg width="100" height="21" viewBox="0 0 100 21" fill="none" xmlns="http://www.w3.org/2000/svg">
<path d="M86.8093 11.4438C86.7206 11.4323 86.6297 11.4161 86.5367 11.3951C86.6263 11.4216 86.7175 11.4382 86.8093 11.4438Z" fill="white"/>
<path d="M53.1617 2.80681C55.0054 9.6005 69.6473 10.9126 81.3971 5.06532C83.1566 4.40536 84.4941 3.87865 86.0772 3.95402C86.9119 3.99375 87.6763 4.26069 88.3399 4.83277C90.3557 6.57059 89.9077 11.8457 86.8093 11.4438M86.8093 11.4438C86.7206 11.4323 86.6297 11.4161 86.5367 11.3951M86.8093 11.4438C86.7175 11.4382 86.6263 11.4216 86.5367 11.3951M86.8093 11.4438C86.8282 11.4449 86.8471 11.4456 86.866 11.4458M86.5367 11.3951C86.515 11.3902 86.4932 11.385 86.4713 11.3796M86.5367 11.3951C85.4225 11.0659 84.5394 9.21609 85.5266 8.23603C86.2241 7.5435 87.2972 8.09246 87.2325 9.52193" stroke="black"/>
<path d="M13.262 11.4438C13.3507 11.4323 13.4416 11.4161 13.5346 11.3951C13.445 11.4216 13.3538 11.4382 13.262 11.4438Z" fill="white"/>
<path d="M46.9096 2.80681C45.0659 9.6005 30.424 10.9126 18.6742 5.06532C16.9147 4.40536 15.5772 3.87865 13.9941 3.95402C13.1594 3.99375 12.3949 4.26069 11.7314 4.83277C9.71559 6.57059 10.1636 11.8457 13.262 11.4438M13.262 11.4438C13.3507 11.4323 13.4416 11.4161 13.5346 11.3951M13.262 11.4438C13.3538 11.4382 13.445 11.4216 13.5346 11.3951M13.262 11.4438C13.2431 11.4449 13.2242 11.4456 13.2053 11.4458M13.5346 11.3951C13.5563 11.3902 13.5781 11.385 13.6 11.3796M13.5346 11.3951C14.6488 11.0659 15.5319 9.21609 14.5447 8.23603C13.8471 7.5435 12.7741 8.09246 12.8388 9.52193" stroke="black"/>
<path d="M48.2141 8.70599L48.601 9.02281L48.2141 8.70599C47.6411 9.40563 46.8592 10.0503 46.0302 10.5164C45.1953 10.9858 44.3559 11.2502 43.6671 11.2444L42.8892 11.2377L43.2062 11.9481C43.351 12.2725 43.694 12.5811 44.0699 12.8227C44.4679 13.0785 44.9822 13.3103 45.5634 13.4437C46.4172 13.6396 47.428 13.624 48.4168 13.1503C48.3345 13.7173 48.2895 14.3495 48.2895 15.0109C48.2895 15.511 48.4309 16.3571 48.6439 17.1617C48.752 17.5701 48.8823 17.9824 49.0299 18.3495C49.1746 18.7093 49.3478 19.0563 49.5519 19.3119L49.9427 19.8014L50.3334 19.3119C50.5375 19.0563 50.7108 18.7093 50.8554 18.3495C51.003 17.9824 51.1334 17.5701 51.2414 17.1617C51.4544 16.3571 51.5958 15.511 51.5958 15.0109C51.5958 14.3153 51.5461 13.6515 51.4552 13.0616C52.5104 13.543 53.5738 13.4751 54.4541 13.1974C55.0425 13.0118 55.5547 12.7323 55.9447 12.4579C56.3156 12.1971 56.6324 11.9011 56.773 11.6549L57.2247 10.8644L56.3152 10.9075C55.5974 10.9415 54.7251 10.6931 53.8583 10.2255C52.9972 9.761 52.1844 9.10276 51.5876 8.37413L51.2008 8.69096L51.5876 8.37413C51.0965 7.77456 50.7091 7.09139 50.4274 6.35795L49.9301 5.06296L49.4869 6.37743C49.1996 7.22927 48.7743 8.02203 48.2141 8.70599Z" fill="white" stroke="black"/>
<path d="M9.0804 5.06462C8.4308 4.8049 7.50768 4.70575 6.49667 4.83192C5.74731 4.92543 3.5613 6.07925 2.93937 7.08105C4.74098 7.76447 6.86015 8.02682 7.61264 8.03943C8.83645 8.05993 8.12494 7.02273 9.0804 5.06462Z" fill="white" stroke="black"/>
<path d="M90.9196 5.06462C91.5692 4.8049 92.4923 4.70575 93.5033 4.83192C94.2527 4.92543 96.4387 6.07925 97.0606 7.08105C95.259 7.76447 93.1398 8.02682 92.3874 8.03943C91.1636 8.05993 91.8751 7.02273 90.9196 5.06462Z" fill="white" stroke="black"/>
<line y1="0.500244" x2="100" y2="0.500244" stroke="black"/>
</svg>
